<svg xmlns="http://www.w3.org/2000/svg" viewBox="0 0 19 19"><defs><style>.cls-1{fill:#b3b4b3;}</style></defs><title>_05_ libraries -37</title><g id="Layer_1_copy_6" data-name="Layer 1 copy 6"><path class="cls-1" d="M17.892,8.8a3.5,3.5,0,0,0-2.735-2.06c-.106-.016-.187-.026-.212-.181a3.888,3.888,0,0,0-4.219-3.45,3.556,3.556,0,0,0-3.1,2.3.2.2,0,0,1-.271.1c-1.836-.828-3.807.808-3.865,3-.15.018-.286.031-.422.05a3.015,3.015,0,0,0-2.3,3.583c.294,1.476,1.383,3.224,2.758,3.224q5.6,0,11.2,0a3.441,3.441,0,0,0,.664-.07C17.757,14.828,19.04,11.124,17.892,8.8Zm-6.024.661a.571.571,0,0,1-.63-.132l-.82-.783-.033-.031-.011,0v.054c0,1.233,0,2.466,0,3.7a.562.562,0,0,1-1.124.028q0-1.863,0-3.725V8.507l-.043.038c-.272.26-.545.519-.816.781a.577.577,0,0,1-.529.167.523.523,0,0,1-.418-.345.487.487,0,0,1,.116-.541c.177-.18.364-.351.546-.525L9.418,6.829a.564.564,0,0,1,.78,0L11.92,8.466c.047.044.094.087.14.133A.523.523,0,0,1,11.868,9.461Z"/></g></svg>